<svg width="20" height="21" viewBox="0 0 20 21" fill="none" xmlns="http://www.w3.org/2000/svg">
<path d="M8.75 7.1665H11.25M5.63333 18.8332H14.3667C16.6667 18.8332 17.5833 17.4248 17.6917 15.7082L18.125 8.82484C18.152 8.39803 18.0912 7.97022 17.9463 7.56785C17.8014 7.16547 17.5756 6.79709 17.2827 6.48546C16.9898 6.17383 16.6361 5.92558 16.2435 5.75606C15.8509 5.58653 15.4277 5.49933 15 5.49984C14.4917 5.49984 14.025 5.20817 13.7917 4.75817L13.1917 3.54984C12.8083 2.7915 11.8083 2.1665 10.9583 2.1665H9.05C8.19166 2.1665 7.19166 2.7915 6.80833 3.54984L6.20833 4.75817C5.975 5.20817 5.50833 5.49984 5 5.49984C3.19166 5.49984 1.75833 7.02484 1.875 8.82484L2.30833 15.7082C2.40833 17.4248 3.33333 18.8332 5.63333 18.8332Z" stroke="#0044AB" stroke-width="1.5" stroke-linecap="round" stroke-linejoin="round"/>
<path d="M9.99999 15.5002C11.4917 15.5002 12.7083 14.2835 12.7083 12.7918C12.7083 11.3002 11.4917 10.0835 9.99999 10.0835C8.50832 10.0835 7.29166 11.3002 7.29166 12.7918C7.29166 14.2835 8.50832 15.5002 9.99999 15.5002Z" stroke="#0044AB" stroke-width="1.5" stroke-linecap="round" stroke-linejoin="round"/>
</svg>
