<svg width="20" height="21" viewBox="0 0 20 21" fill="none" xmlns="http://www.w3.org/2000/svg">
<path d="M14.1667 19.4582H5.83332C2.15832 19.4582 1.04166 18.3415 1.04166 14.6665V6.33317C1.04166 2.65817 2.15832 1.5415 5.83332 1.5415H7.08332C8.54166 1.5415 8.99999 2.0165 9.58332 2.7915L10.8333 4.45817C11.1083 4.82484 11.15 4.87484 11.6667 4.87484H14.1667C17.8417 4.87484 18.9583 5.9915 18.9583 9.6665V14.6665C18.9583 18.3415 17.8417 19.4582 14.1667 19.4582ZM5.83332 2.7915C2.84999 2.7915 2.29166 3.35817 2.29166 6.33317V14.6665C2.29166 17.6415 2.84999 18.2082 5.83332 18.2082H14.1667C17.15 18.2082 17.7083 17.6415 17.7083 14.6665V9.6665C17.7083 6.6915 17.15 6.12484 14.1667 6.12484H11.6667C10.6 6.12484 10.25 5.75817 9.83332 5.20817L8.58332 3.5415C8.14999 2.9665 8.01666 2.7915 7.08332 2.7915H5.83332Z" fill="#0044AB"/>
<path d="M16.6667 6.4415C16.325 6.4415 16.0417 6.15817 16.0417 5.8165V4.6665C16.0417 3.34984 15.4833 2.7915 14.1667 2.7915H6.66666C6.32499 2.7915 6.04166 2.50817 6.04166 2.1665C6.04166 1.82484 6.32499 1.5415 6.66666 1.5415H14.1667C16.1833 1.5415 17.2917 2.64984 17.2917 4.6665V5.8165C17.2917 6.15817 17.0083 6.4415 16.6667 6.4415Z" fill="#0044AB"/>
</svg>
