<svg width="20" height="21" viewBox="0 0 20 21" fill="none" xmlns="http://www.w3.org/2000/svg">
<path d="M12.5 19.4582H7.49999C2.97499 19.4582 1.04166 17.5248 1.04166 12.9998V7.99984C1.04166 3.47484 2.97499 1.5415 7.49999 1.5415H12.5C17.025 1.5415 18.9583 3.47484 18.9583 7.99984V12.9998C18.9583 17.5248 17.025 19.4582 12.5 19.4582ZM7.49999 2.7915C3.65832 2.7915 2.29166 4.15817 2.29166 7.99984V12.9998C2.29166 16.8415 3.65832 18.2082 7.49999 18.2082H12.5C16.3417 18.2082 17.7083 16.8415 17.7083 12.9998V7.99984C17.7083 4.15817 16.3417 2.7915 12.5 2.7915H7.49999Z" fill="#0044AB"/>
<path d="M7.50001 9.45833C6.23334 9.45833 5.20834 8.43333 5.20834 7.16667C5.20834 5.9 6.23334 4.875 7.50001 4.875C8.76668 4.875 9.79168 5.9 9.79168 7.16667C9.79168 8.43333 8.76668 9.45833 7.50001 9.45833ZM7.50001 6.125C6.92501 6.125 6.45834 6.59167 6.45834 7.16667C6.45834 7.74167 6.92501 8.20833 7.50001 8.20833C8.07501 8.20833 8.54168 7.74167 8.54168 7.16667C8.54168 6.59167 8.07501 6.125 7.50001 6.125Z" fill="#0044AB"/>
<path d="M2.225 16.9168C2.025 16.9168 1.825 16.8168 1.70834 16.6418C1.51667 16.3585 1.59167 15.9668 1.88334 15.7751L5.99167 13.0168C6.89167 12.4085 8.13334 12.4835 8.95 13.1751L9.225 13.4168C9.64167 13.7751 10.35 13.7751 10.7583 13.4168L14.225 10.4418C15.1083 9.68346 16.5 9.68346 17.3917 10.4418L18.75 11.6085C19.0083 11.8335 19.0417 12.2251 18.8167 12.4918C18.5917 12.7501 18.2 12.7835 17.9333 12.5585L16.575 11.3918C16.1583 11.0335 15.45 11.0335 15.0333 11.3918L11.5667 14.3668C10.6833 15.1251 9.29167 15.1251 8.4 14.3668L8.125 14.1251C7.74167 13.8001 7.10834 13.7668 6.68334 14.0585L2.575 16.8168C2.46667 16.8835 2.34167 16.9168 2.225 16.9168Z" fill="#0044AB"/>
</svg>
